<svg width="100" height="100" viewBox="0 0 100 100" fill="none" xmlns="http://www.w3.org/2000/svg">
<path d="M16.6804 24.7935C25.1158 33.3781 26.7618 35.1141 27.4968 36.2671C28.5781 37.9754 29.501 40.1521 29.9812 42.0952C30.3943 43.8518 30.308 48.8409 29.8259 52.479C29.2741 56.5249 29.622 59.5304 31.0417 63.0698C32.5569 66.8241 31.518 65.6662 50.8064 84.9546L63.8953 98.0425C59.4837 99.3162 54.8215 100 49.9998 100C22.3858 100 1.9778e-05 77.6144 -0.000244141 50.0005C-0.000244141 38.2337 4.06616 27.4171 10.8679 18.8765L16.6804 24.7935ZM51.3572 42.811C54.4939 41.6186 57.2677 41.4657 60.199 42.3667C63.2595 43.3075 62.1995 42.3672 79.7322 59.6909L93.9792 73.8042C92.2747 76.9468 90.2424 79.8851 87.9294 82.5757L74.7937 69.3716C58.8251 53.3288 59.2553 53.735 57.5759 53.4888C56.5977 53.3507 55.4501 53.6606 54.6111 54.3042C53.1833 55.397 52.9642 58.045 54.1453 59.7944C54.5646 60.4114 58.9782 64.874 69.2849 75.1313L82.3445 88.1245C79.6744 90.3921 76.7647 92.3854 73.656 94.0581L59.157 79.4214C44.4096 64.5247 43.3545 63.41 42.8748 62.4526C41.5765 59.7213 41.2659 56.4247 42.0281 53.1265C42.9747 48.9678 47.0474 44.4723 51.3572 42.811ZM49.9998 -0.000488281C77.614 -0.000488281 99.9998 22.3863 99.9998 50.0005C99.9997 54.9766 99.2722 59.7827 97.9187 64.3188C95.4518 61.8014 91.541 57.8615 85.3015 51.5864C74.2575 40.4827 68.1545 34.4687 67.1902 33.7134C64.3697 31.49 60.8565 30.1563 57.0671 29.8599C56.0259 29.774 53.4995 29.9055 51.4343 30.1392C46.9829 30.6737 44.1271 30.6549 41.6492 30.1177C39.6322 29.6831 37.1841 28.6081 35.5935 27.4653C34.9246 27.0054 30.9483 23.1483 25.1443 17.3442C22.7473 14.9472 20.4915 12.7135 18.7322 10.9839C27.2951 4.11265 38.1666 -0.000431741 49.9998 -0.000488281Z" fill="black"/>
</svg>